<svg xmlns="http://www.w3.org/2000/svg" xmlns:xlink="http://www.w3.org/1999/xlink" style="width: 0; height: 0; visibility: hidden; position: absolute;" aria-hidden="true"><symbol  viewBox='0 0 31.494 31.494' id='icon-arrow-left'>
      <path d="M10.273 5.009a1.112 1.112 0 0 1 1.587 0 1.12 1.12 0 0 1 0 1.571l-8.047 8.047h26.554c.619 0 1.127.492 1.127 1.111s-.508 1.127-1.127 1.127H3.813l8.047 8.032c.429.444.429 1.159 0 1.587a1.112 1.112 0 0 1-1.587 0L.321 16.532a1.12 1.12 0 0 1 0-1.571l9.952-9.952z"></path>
    </symbol><symbol  viewBox='0 0 31.49 31.49' id='icon-arrow-right'>
      <path d="M21.205 5.007a1.112 1.112 0 0 0-1.587 0 1.12 1.12 0 0 0 0 1.571l8.047 8.047H1.111A1.106 1.106 0 0 0 0 15.737c0 .619.492 1.127 1.111 1.127h26.554l-8.047 8.032c-.429.444-.429 1.159 0 1.587a1.112 1.112 0 0 0 1.587 0l9.952-9.952a1.093 1.093 0 0 0 0-1.571l-9.952-9.953z"></path>
    </symbol><symbol  viewBox='0 0 512 512' id='icon-github'>
      <path d="M386 53c0 5.523-4.477 10-10 10s-10-4.477-10-10 4.477-10 10-10 10 4.477 10 10zm0 0M256 106c-93.738 0-170 76.262-170 170 0 94.645 76.879 170 170 170 93.324 0 170-75.488 170-170 0-93.738-76.262-170-170-170zm-30.793 316.82c.508-2.207.781-4.492.793-6.82v-39.836c-.023-14.582 5.059-16.844 10.875-25.726a10.013 10.013 0 0 0 .762-9.57 9.992 9.992 0 0 0-7.649-5.798c-39.668-5.922-55.238-26.37-61.316-42.48-8.094-21.461-3.809-48.223 10.418-65.094 2.164-2.543 4.101-7.113 2.547-11.687-3.035-9.168-2.563-23.813-.672-29.477 8.617 1.262 16.668 6.145 25.84 11.711 5.308 3.227 9.082 6.203 15.504 4.477 11.222-3.043 22.558-4.66 33.691-4.81 11.137.145 22.473 1.767 33.71 4.813 6.384 1.723 10.282-1.32 15.485-4.48 9.176-5.566 17.227-10.453 25.844-11.711 1.89 5.66 2.363 20.3-.644 29.395-1.582 4.652.351 9.226 2.515 11.77 14.23 16.866 18.516 43.632 10.418 65.093-6.074 16.11-21.644 36.558-61.312 42.476a10.005 10.005 0 0 0-6.891 15.372c5.805 8.863 10.902 11.125 10.879 25.742v39.875c.012 2.304.281 4.574.785 6.765a150.715 150.715 0 0 1-61.582 0zm80.902-5.402A11.262 11.262 0 0 1 306 416v-39.805c.02-11.476-2.504-18.941-5.629-24.539 30.348-8.203 51.977-26.308 61.668-52.008 10.238-27.144 5.594-59.593-11.45-82.058 3.106-13.668 3.016-35.254-4.425-45.07-3.328-4.395-7.976-6.672-13.117-6.45-15.637.723-27.688 8.528-40.813 16.442-12.011-3.04-24.144-4.653-36.113-4.801a2.504 2.504 0 0 0-.242 0c-11.973.144-24.113 1.762-36.113 4.8-13.024-7.85-25.11-15.714-40.817-16.44-5.117-.235-9.781 2.054-13.113 6.449-7.43 9.8-7.531 31.335-4.422 45.062-17.043 22.465-21.691 54.922-11.453 82.066 9.691 25.7 31.32 43.805 61.668 52.004-2.469 4.422-4.555 10.016-5.316 17.817-12.368 4.324-22.38 1.472-29.176-9.98-7.95-13.372-21.418-24.157-36.856-22.825-5.504.477-9.578 5.324-9.101 10.824.472 5.504 5.336 9.586 10.824 9.106 7.148-.621 14.2 6.824 17.937 13.11 10.688 18.01 28 24.44 46.059 20.577v25.66c-.004.504-.047.993-.113 1.473C146.687 396.41 106 339.394 106 276c0-82.71 67.29-150 150-150s150 67.29 150 150c0 63.395-40.687 120.41-99.89 141.418zm0 0"></path><path d="M462 0H50C22.43 0 0 22.43 0 50v412c0 27.57 22.43 50 50 50h412c27.57 0 50-22.43 50-50V50c0-27.57-22.43-50-50-50zm30 462c0 16.543-13.457 30-30 30H50c-16.543 0-30-13.457-30-30V50c0-16.543 13.457-30 30-30h412c16.543 0 30 13.457 30 30zm0 0"></path><path d="M136 63h200c5.523 0 10-4.477 10-10s-4.477-10-10-10H136c-5.523 0-10 4.477-10 10s4.477 10 10 10zm0 0"></path>
    </symbol><symbol  viewBox='0 0 294.843 294.843' id='icon-menu-btn'>
      <path d="M147.421 0C66.133 0 0 66.133 0 147.421c0 40.968 17.259 80.425 47.351 108.255a6 6 0 0 0 8.147-8.81C27.854 221.3 12 185.054 12 147.421 12 72.75 72.75 12 147.421 12s135.421 60.75 135.421 135.421-60.75 135.421-135.421 135.421a6 6 0 0 0 0 12c81.289 0 147.421-66.133 147.421-147.421S228.71 0 147.421 0z"></path><path d="M84.185 90.185h126.473a6 6 0 0 0 0-12H84.185a6 6 0 0 0 0 12zm0 63.236h126.473a6 6 0 0 0 0-12H84.185a6 6 0 0 0 0 12zm132.473 57.237a6 6 0 0 0-6-6H84.185a6 6 0 0 0 0 12h126.473a6 6 0 0 0 6-6z"></path>
    </symbol><symbol  viewBox='0 0 512 512' id='icon-web'>
      <path d="M469.333 0H42.667C19.114.028.028 19.114 0 42.667v426.667C.028 492.886 19.114 511.972 42.667 512h426.667c23.552-.028 42.638-19.114 42.667-42.667V42.667C511.972 19.114 492.886.028 469.333 0zm25.6 469.333c0 14.138-11.461 25.6-25.6 25.6H42.667c-14.138 0-25.6-11.461-25.6-25.6v-384h477.867v384zm0-401.066H17.067v-25.6c0-14.138 11.462-25.6 25.6-25.6h426.667c14.138 0 25.6 11.462 25.6 25.6v25.6z"></path><path d="M59.733 34.133H51.2c-4.713 0-8.533 3.82-8.533 8.533S46.487 51.2 51.2 51.2h8.533c4.713 0 8.533-3.82 8.533-8.533s-3.82-8.534-8.533-8.534zM97.109 34.816a7.817 7.817 0 0 0-6.485 0 9.857 9.857 0 0 0-2.816 1.792 8.653 8.653 0 0 0 0 12.117 9.857 9.857 0 0 0 2.816 1.792c2.066.91 4.419.91 6.485 0a9.857 9.857 0 0 0 2.816-1.792 8.653 8.653 0 0 0 0-12.117 9.857 9.857 0 0 0-2.816-1.792zM131.272 34.736a8.533 8.533 0 0 0-9.331 1.872 9.857 9.857 0 0 0-1.792 2.816 8.036 8.036 0 0 0 0 6.485 9.857 9.857 0 0 0 1.792 2.816 8.653 8.653 0 0 0 12.117 0 9.857 9.857 0 0 0 1.792-2.816 7.163 7.163 0 0 0 .683-3.243 8.531 8.531 0 0 0-5.261-7.93zM460.8 34.133H170.667c-4.713 0-8.533 3.82-8.533 8.533s3.82 8.533 8.533 8.533H460.8c4.713 0 8.533-3.82 8.533-8.533s-3.82-8.533-8.533-8.533zM131.012 406.357c.388.357.811.675 1.263.947a169.899 169.899 0 0 0 247.586-.077 7.982 7.982 0 0 0 1.195-.853c.28-.393.526-.81.734-1.246 59.882-64.957 59.882-164.999 0-229.956l-.034-.017a8.328 8.328 0 0 0-.734-1.246 7.644 7.644 0 0 0-1.271-.956 169.896 169.896 0 0 0-247.466 0 7.59 7.59 0 0 0-1.271.956c-.28.393-.526.81-.734 1.246-59.882 64.957-59.882 164.999 0 229.956.207.436.452.853.732 1.246zm171.537 30.097a156.811 156.811 0 0 0 29.056-53.76v-.026a156.234 156.234 0 0 1 30.148 18.551 153.588 153.588 0 0 1-59.204 35.235zm70.981-47.633a173.058 173.058 0 0 0-37.086-22.741 304.21 304.21 0 0 0 8.934-67.413h63.787a152.749 152.749 0 0 1-35.635 90.154zM409.165 281.6h-63.787a304.32 304.32 0 0 0-8.934-67.413 173.076 173.076 0 0 0 37.086-22.724 152.745 152.745 0 0 1 35.635 90.137zm-47.411-102.579a156.184 156.184 0 0 1-30.148 18.551 156.817 156.817 0 0 0-29.056-53.786 153.627 153.627 0 0 1 59.204 35.235zm-97.221-41.293c20.915 5.478 39.415 30.626 51.072 66.227a181.188 181.188 0 0 1-51.072 9.719v-75.946zm0 93.022a197.344 197.344 0 0 0 55.774-10.24 288.912 288.912 0 0 1 8.013 61.09h-63.787v-50.85zm0 67.917h63.787a288.892 288.892 0 0 1-8.013 61.073 197.33 197.33 0 0 0-55.774-10.223v-50.85zm0 67.925a181.2 181.2 0 0 1 51.072 9.728c-11.657 35.601-30.157 60.749-51.072 66.227v-75.955zm-114.287 34.603a156.23 156.23 0 0 1 30.148-18.5v-.026a156.811 156.811 0 0 0 29.056 53.76 153.613 153.613 0 0 1-59.204-35.234zm97.221 41.344c-20.915-5.478-39.415-30.626-51.072-66.227a181.188 181.188 0 0 1 51.072-9.719v75.946zm0-93.022a197.35 197.35 0 0 0-55.774 10.24 288.92 288.92 0 0 1-8.013-61.09h63.787v50.85zm0-67.917H183.68a288.892 288.892 0 0 1 8.013-61.073 197.33 197.33 0 0 0 55.774 10.223v50.85zm0-143.881v75.955a181.2 181.2 0 0 1-51.072-9.728c11.656-35.6 30.156-60.748 51.072-66.227zm-38.016 6.042a156.81 156.81 0 0 0-29.056 53.811v-.026a156.189 156.189 0 0 1-30.148-18.552 153.608 153.608 0 0 1 59.204-35.233zm-70.981 47.684a173.058 173.058 0 0 0 37.086 22.741 304.21 304.21 0 0 0-8.934 67.413h-63.787a152.749 152.749 0 0 1 35.635-90.154zm28.152 107.222a304.32 304.32 0 0 0 8.934 67.413 173.076 173.076 0 0 0-37.086 22.724 152.748 152.748 0 0 1-35.635-90.138h63.787z"></path>
    </symbol></svg>